<svg width="100" height="100">
	<path
		d="M10,21  C10,21 11,22 12,22 L13,22 C12,22 13,22 14,21 C13,22 14,21 15,21 C14,21 15,21 16,20 C15,21 16,20 16,19 L16,18 L16,17 L16,16 C16,17 16,16 15,15 C16,16 15,15 14,15 L13,15 L12,15 L11,15 C12,15 11,15 10,14 C11,15 10,14 10,13 L10,12 L10,11 C10,12 10,11 11,10 C10,11 11,10 12,9 C11,10 12,9 13,8 C12,9 13,8 14,7 C13,8 14,7 15,7 L16,7 C15,7 16,7 17,8 C16,7 17,8 18,9 C17,8 18,9 18,10 C18,9 18,10 17,11 C18,10 17,11 17,12 L17,13 L17,14"
		stroke-width="0.5"
		stroke="white" fill="none" />
</svg>